<svg xmlns="http://www.w3.org/2000/svg" viewBox="0 0 400 400"
     stroke="#111" fill="none"
     stroke-linecap="round" stroke-linejoin="round">

  <defs>
    <!-- Stone silhouette mask: hides back arc only behind actual polyhedron shape -->
    <mask id="stone-silhouette">
      <rect x="0" y="0" width="400" height="400" fill="white"/>
      <polygon points="200,127.5 271.6,167.6 257.9,214.7 257.9,250.2 200,272.5 128.5,232.4 142.1,185.4 142.1,149.8" fill="black"/>
    </mask>

    <linearGradient id="half-fade" x1="200" y1="200" x2="80" y2="200" gradientUnits="userSpaceOnUse">
      <stop offset="0" stop-color="white"/>
      <stop offset="1" stop-color="black"/>
    </linearGradient>
    <mask id="half-fade-mask">
      <rect x="0" y="0" width="400" height="400" fill="url(#half-fade)"/>
    </mask>
  </defs>

  <!-- Back arc (top half), masked behind silhouette -->
  <path d="M 69.52 200 A 155 58 -15 0 1 330.48 200" stroke-width="1.2" mask="url(#stone-silhouette)"/>

  <!-- Polyhedron with half-fade applied -->
  <g mask="url(#half-fade-mask)">
    <!-- 18 solid edges (right intact + L1/L3) -->
    <g stroke-width="1.4">
      <line x1="200"   y1="127.5" x2="271.6" y2="167.6"/>
      <line x1="200"   y1="127.5" x2="222.1" y2="138.8"/>
      <line x1="200"   y1="127.5" x2="222.1" y2="196.3"/>
      <line x1="271.6" y1="167.6" x2="222.1" y2="138.8"/>
      <line x1="222.1" y1="196.3" x2="271.6" y2="167.6"/>
      <line x1="271.6" y1="167.6" x2="257.9" y2="214.7"/>
      <line x1="271.6" y1="167.6" x2="257.9" y2="250.2"/>
      <line x1="222.1" y1="138.8" x2="257.9" y2="214.7"/>
      <line x1="222.1" y1="138.8" x2="177.9" y2="203.7"/>
      <line x1="222.1" y1="196.3" x2="257.9" y2="250.2"/>
      <line x1="222.1" y1="196.3" x2="177.9" y2="261.2"/>
      <line x1="257.9" y1="214.7" x2="177.9" y2="203.7"/>
      <line x1="257.9" y1="250.2" x2="257.9" y2="214.7"/>
      <line x1="177.9" y1="261.2" x2="257.9" y2="250.2"/>
      <line x1="200"   y1="272.5" x2="257.9" y2="214.7"/>
      <line x1="200"   y1="272.5" x2="177.9" y2="203.7"/>
      <line x1="200"   y1="272.5" x2="177.9" y2="261.2"/>
      <line x1="200"   y1="272.5" x2="257.9" y2="250.2"/>
    </g>
    <!-- 12 dashed edges (left side, shattering) -->
    <g stroke-width="1.4" stroke-dasharray="4 3">
      <line x1="200"   y1="127.5" x2="142.1" y2="149.8"/>
      <line x1="200"   y1="127.5" x2="142.1" y2="185.4"/>
      <line x1="222.1" y1="138.8" x2="142.1" y2="149.8"/>
      <line x1="142.1" y1="149.8" x2="142.1" y2="185.4"/>
      <line x1="142.1" y1="185.4" x2="222.1" y2="196.3"/>
      <line x1="142.1" y1="149.8" x2="177.9" y2="203.7"/>
      <line x1="142.1" y1="149.8" x2="128.5" y2="232.4"/>
      <line x1="142.1" y1="185.4" x2="128.5" y2="232.4"/>
      <line x1="142.1" y1="185.4" x2="177.9" y2="261.2"/>
      <line x1="177.9" y1="203.7" x2="128.5" y2="232.4"/>
      <line x1="128.5" y1="232.4" x2="177.9" y2="261.2"/>
      <line x1="200"   y1="272.5" x2="128.5" y2="232.4"/>
    </g>
  </g>

  <!-- Front arc, solid -->
  <path d="M 330.48 200 A 155 58 -15 0 1 69.52 200" stroke-width="1.2"/>

  <!-- Satellite -->
  <circle cx="316.5" cy="211.3" r="4" fill="#111" stroke="none"/>
</svg>
